<?xml version="1.0" standalone="no"?><!DOCTYPE svg PUBLIC "-//W3C//DTD SVG 1.1//EN" "http://www.w3.org/Graphics/SVG/1.1/DTD/svg11.dtd"><svg t="1697426131206" class="icon" viewBox="0 0 1024 1024" version="1.1" xmlns="http://www.w3.org/2000/svg" p-id="4080" xmlns:xlink="http://www.w3.org/1999/xlink" width="200" height="200"><path d="M256 256h73.143v73.143H256V256zM841.143 841.143h73.143v73.143h-73.143v-73.143zM841.143 694.857H768V548.571H548.571V914.286h73.143V621.714h73.143V768h219.429V548.571h-73.143z" p-id="4081"></path><path d="M694.857 841.143H768v73.143h-73.143v-73.143zM109.714 475.429H475.43V109.714H109.714V475.43z m73.143-292.572h219.429v219.429H182.857V182.857zM256 694.857h73.143V768H256v-73.143z" p-id="4082"></path><path d="M109.714 914.286H475.43V548.57H109.714v365.715z m73.143-292.572h219.429v219.429H182.857V621.714zM694.857 256H768v73.143h-73.143V256z" p-id="4083"></path><path d="M548.571 109.714V475.43h365.715V109.714H548.57z m292.572 292.572H621.714V182.857h219.429v219.429z" p-id="4084"></path></svg>