<?xml version="1.0" standalone="no"?><!DOCTYPE svg PUBLIC "-//W3C//DTD SVG 1.1//EN" "http://www.w3.org/Graphics/SVG/1.1/DTD/svg11.dtd"><svg t="1697434758943" class="icon" viewBox="0 0 1024 1024" version="1.1" xmlns="http://www.w3.org/2000/svg" p-id="6764" xmlns:xlink="http://www.w3.org/1999/xlink" width="200" height="200"><path d="M856.3 128H167.7c-21.9 0-39.7 17.8-39.7 39.7v688.7c0 21.9 17.8 39.7 39.7 39.7h688.7c21.9 0 39.7-17.8 39.7-39.7V167.7c-0.1-21.9-17.9-39.7-39.8-39.7z m-10.9 717.4H178.6V178.6h666.8v666.8z" p-id="6765" fill="#2550cd"></path><path d="M356.4 537.3h130.3v130.3c0 14 11.3 25.3 25.3 25.3s25.3-11.3 25.3-25.3V537.3h130.3c14 0 25.3-11.3 25.3-25.3s-11.3-25.3-25.3-25.3H537.3V356.4c0-14-11.3-25.3-25.3-25.3s-25.3 11.3-25.3 25.3v130.3H356.4c-14 0-25.3 11.3-25.3 25.3s11.3 25.3 25.3 25.3z" p-id="6766" fill="#2550cd"></path></svg>