<?xml version="1.0" standalone="no"?><!DOCTYPE svg PUBLIC "-//W3C//DTD SVG 1.1//EN" "http://www.w3.org/Graphics/SVG/1.1/DTD/svg11.dtd"><svg t="1697435210480" class="icon" viewBox="0 0 1024 1024" version="1.1" xmlns="http://www.w3.org/2000/svg" p-id="11224" xmlns:xlink="http://www.w3.org/1999/xlink" width="200" height="200"><path d="M384 768C348.653776 768 320 796.653776 320 832 320 867.346224 348.653776 896 384 896 419.346224 896 448 867.346224 448 832 448 796.653776 419.346224 768 384 768ZM384 448C348.653776 448 320 476.653776 320 512 320 547.346224 348.653776 576 384 576 419.346224 576 448 547.346224 448 512 448 476.653776 419.346224 448 384 448ZM384 128C348.653776 128 320 156.653779 320 192 320 227.346221 348.653776 256 384 256 419.346224 256 448 227.346221 448 192 448 156.653779 419.346224 128 384 128ZM640 768C604.653776 768 576 796.653776 576 832 576 867.346224 604.653776 896 640 896 675.346221 896 704 867.346224 704 832 704 796.653776 675.346221 768 640 768ZM640 448C604.653776 448 576 476.653776 576 512 576 547.346224 604.653776 576 640 576 675.346221 576 704 547.346224 704 512 704 476.653776 675.346221 448 640 448ZM640 128C604.653776 128 576 156.653779 576 192 576 227.346221 604.653776 256 640 256 675.346221 256 704 227.346221 704 192 704 156.653779 675.346221 128 640 128Z" fill="#BBBBBB" p-id="11225"></path></svg>